<?xml version="1.0"?><svg width="640" height="480" xmlns="http://www.w3.org/2000/svg">
 <title>Nerd Glasses</title>

 <metadata id="metadata7">image/svg+xml</metadata>
 <g>
  <title>Layer 1</title>
  <path d="m467.867371,86.044998c-28.959961,0.187729 -56.86731,8.962517 -85.293121,12.471504c-11.863647,1.464584 -24.091187,1.823402 -35.974762,0.461769c-15.800537,-1.810707 -31.098206,-6.620308 -46.888306,-8.77636c-14.111267,-1.925598 -28.398895,-3.9375 -42.598785,-4.017502c-24.815491,-0.142586 -48.81546,7.388626 -73.141983,11.455231c0,6.897537 -1.44606,15.751549 2.191193,20.599922c3.751892,5.000488 10.080612,9.574043 11.722076,16.350372c3.892578,16.071533 9.419693,31.825455 16.486633,46.928268c3.434021,7.339523 9.915588,12.456436 17.153625,15.981262c17.42981,8.488052 38.059158,9.736374 57.179947,7.067032c27.229889,-3.80127 42.003021,-23.605911 53.273438,-46.235199c4.218292,-9.198532 4.689026,-19.814987 10.244781,-28.222214c3.299408,-4.992577 10.962097,-2.891121 16.437988,-2.90937c5.476746,-0.018204 10.118835,8.811241 11.817596,14.688576c6.015198,20.798721 16.043701,42.865616 35.975647,53.763214c29.764191,16.274307 76.655945,13.230316 95.967743,-16.119873c7.557678,-11.486923 9.644714,-25.423767 13.436523,-38.428314c2.308411,-7.917755 4.371094,-17.357109 12.580078,-21.709648c3.3125,-1.756882 0.987549,-8.76609 1.47644,-12.840607c0.533325,-4.438881 1.56073,-8.366089 -4.955627,-9.237381c-11.365112,-1.521599 -22.389709,-6.147438 -34.021454,-7.713394c-11.022949,-1.484375 -21.822693,-3.629349 -33.069672,-3.557289zm-191.457001,7.390236c8.221161,-0.049919 16.406708,0.533073 24.396851,2.17112c47.607422,9.760941 48.569702,28.774315 28.971252,68.08345c-15.969879,32.029816 -49.051727,40.055283 -82.386261,32.377548c-15.367157,-3.538284 -25.874207,-13.936066 -30.829819,-28.174713c-5.230942,-15.028351 -9.186935,-30.994537 -8.291504,-46.790451c1.200226,-21.150421 25.880249,-24.123161 43.552368,-26.050308c8.109146,-0.883972 16.366776,-1.565964 24.587112,-1.616646zm173.826538,0c8.221161,0.050682 16.478821,0.732674 24.587952,1.616646c17.671234,1.927147 42.352997,4.899887 43.551544,26.050308c0.895386,15.795914 -3.060608,31.7621 -8.291534,46.790451c-4.955658,14.238647 -15.462677,24.636429 -30.828949,28.174713c-33.333679,7.677734 -66.416382,-0.347733 -82.387146,-32.377548c-19.598419,-39.309135 -18.635284,-58.32251 28.972107,-68.08345c7.990204,-1.638046 16.17572,-2.221039 24.396027,-2.17112z" stroke-width="5" stroke="#000000" fill="#000000" id="path2830"/>
 </g>
</svg>